<?xml version="1.0" encoding="UTF-8"?>
<!DOCTYPE svg PUBLIC "-//W3C//DTD SVG 1.1//EN" "http://www.w3.org/Graphics/SVG/1.1/DTD/svg11.dtd">
<svg xmlns="http://www.w3.org/2000/svg" version="1.1" width="1373px" height="549px" style="shape-rendering:geometricPrecision; text-rendering:geometricPrecision; image-rendering:optimizeQuality; fill-rule:evenodd; clip-rule:evenodd" xmlns:xlink="http://www.w3.org/1999/xlink">
<g><path style="opacity:0.98" fill="#009ec7" d="M 1293.5,-0.5 C 1301.17,-0.5 1308.83,-0.5 1316.5,-0.5C 1350.33,9.44478 1365.49,32.1114 1362,67.5C 1355.98,92.8536 1340.15,108.02 1314.5,113C 1279.85,115.777 1257.68,100.61 1248,67.5C 1244.51,32.1114 1259.67,9.44478 1293.5,-0.5 Z"/></g>
<g><path style="opacity:0.985" fill="#009ec7" d="M 1023.5,60.5 C 1055.5,60.5 1087.5,60.5 1119.5,60.5C 1119.5,89.8333 1119.5,119.167 1119.5,148.5C 1145.5,148.5 1171.5,148.5 1197.5,148.5C 1197.5,174.167 1197.5,199.833 1197.5,225.5C 1139.5,225.5 1081.5,225.5 1023.5,225.5C 1023.5,170.5 1023.5,115.5 1023.5,60.5 Z"/></g>
<g><path style="opacity:0.986" fill="#009ec7" d="M 338.5,548.5 C 322.167,548.5 305.833,548.5 289.5,548.5C 262.441,546.148 236.774,538.648 212.5,526C 177.757,505.055 158.257,474.222 154,433.5C 153.5,426.842 153.334,420.175 153.5,413.5C 186.167,413.5 218.833,413.5 251.5,413.5C 253.054,445.217 269.388,464.05 300.5,470C 323.377,473.761 344.044,468.761 362.5,455C 380.221,436.626 382.054,416.793 368,395.5C 354.99,385.083 340.156,378.583 323.5,376C 300.481,372.108 277.481,368.108 254.5,364C 182.539,350.29 152.372,307.123 164,234.5C 174.312,191.184 200.479,162.018 242.5,147C 292.6,130.409 342.6,130.742 392.5,148C 433.042,164.885 456.876,195.051 464,238.5C 465.07,247.818 465.904,257.151 466.5,266.5C 433.5,266.5 400.5,266.5 367.5,266.5C 366.663,231.996 348.996,213.996 314.5,212.5C 291.098,212.447 274.265,222.78 264,243.5C 258.492,259.979 262.326,273.813 275.5,285C 286.609,291.885 298.609,296.552 311.5,299C 339.686,303.771 367.686,309.437 395.5,316C 455.283,332.822 482.45,372.322 477,434.5C 470.584,484.923 443.417,518.757 395.5,536C 376.827,542.299 357.827,546.465 338.5,548.5 Z"/></g>
<g><path style="opacity:0.988" fill="#009ec7" d="M 741.5,136.5 C 813.194,136.271 871.694,163.605 917,218.5C 953.568,268.62 965.402,324.12 952.5,385C 860.832,385.833 769.165,385.667 677.5,384.5C 666.664,365.812 663.497,345.812 668,324.5C 669.325,316.691 672.159,309.524 676.5,303C 737.5,302.667 798.5,302.333 859.5,302C 848.297,265.797 824.63,241.797 788.5,230C 729.143,213.558 681.976,230.391 647,280.5C 622.533,325.539 624.2,369.539 652,412.5C 679.743,448.946 716.576,465.113 762.5,461C 789.94,458.978 813.44,448.478 833,429.5C 835.29,426.42 837.457,423.253 839.5,420C 873.5,419.333 907.5,419.333 941.5,420C 916.141,487.877 867.808,528.877 796.5,543C 722.14,557.141 655.807,540.474 597.5,493C 537.376,435.604 517.543,366.438 538,285.5C 559.015,223.617 599.515,179.783 659.5,154C 685.977,143.473 713.311,137.64 741.5,136.5 Z"/></g>
<g><path style="opacity:0.996" fill="#009ec7" d="M 1257.5,138.5 C 1289.17,138.5 1320.83,138.5 1352.5,138.5C 1352.5,271.167 1352.5,403.833 1352.5,536.5C 1320.83,536.5 1289.17,536.5 1257.5,536.5C 1257.5,403.833 1257.5,271.167 1257.5,138.5 Z"/></g>
<g><path style="opacity:0.985" fill="#009ec7" d="M 1023.5,261.5 C 1055.5,261.5 1087.5,261.5 1119.5,261.5C 1119.02,322.212 1119.52,382.879 1121,443.5C 1123.92,450.758 1129.09,455.592 1136.5,458C 1156.79,459.44 1177.12,459.94 1197.5,459.5C 1197.5,485.167 1197.5,510.833 1197.5,536.5C 1169.83,536.667 1142.16,536.5 1114.5,536C 1087.53,534.757 1064.37,524.924 1045,506.5C 1031.95,491.682 1024.95,474.349 1024,454.5C 1023.5,390.168 1023.33,325.834 1023.5,261.5 Z"/></g>
</svg>
