<svg width="24" height="24" viewBox="0 0 24 24" fill="none" xmlns="http://www.w3.org/2000/svg">
<path fill-rule="evenodd" clip-rule="evenodd" d="M12 3.75C8.524 3.75 5.75 6.467 5.75 9.766C5.75 11.771 6.57 13.499 8.035 14.576C8.358 14.813 8.635 15.167 8.74 15.616C8.827 15.985 8.926 16.434 9.024 16.91H11.25V15.827C11.2499 15.6843 11.2904 15.5445 11.367 15.424L12.169 14.164L10.37 12.752C10.2234 12.6371 10.1249 12.4718 10.0935 12.2883C10.062 12.1048 10.1 11.9161 10.2 11.759L11.367 9.927C11.4199 9.84387 11.4887 9.77198 11.5694 9.71544C11.6501 9.65889 11.7412 9.61879 11.8374 9.59744C11.9336 9.57608 12.033 9.57388 12.1301 9.59096C12.2271 9.60805 12.3199 9.64408 12.403 9.697C12.4861 9.74992 12.558 9.8187 12.6146 9.89941C12.6711 9.98011 12.7112 10.0712 12.7326 10.1674C12.7539 10.2636 12.7561 10.363 12.739 10.4601C12.722 10.5571 12.6859 10.6499 12.633 10.733L11.831 11.992L13.63 13.405C13.7763 13.5198 13.8747 13.6849 13.9061 13.8683C13.9375 14.0516 13.8997 14.24 13.8 14.397L12.75 16.046V16.91H14.976C15.074 16.434 15.173 15.985 15.26 15.616C15.366 15.167 15.642 14.813 15.965 14.576C17.429 13.499 18.25 11.77 18.25 9.766C18.25 6.467 15.476 3.75 12 3.75ZM14.689 18.41H9.31C9.42 19.047 9.507 19.65 9.534 20.084C9.561 20.541 9.902 20.95 10.405 21.058L10.601 21.101C11.521 21.3 12.476 21.3 13.397 21.101L13.593 21.058C14.096 20.95 14.437 20.541 14.465 20.084C14.491 19.651 14.577 19.047 14.688 18.41M4.25 9.766C4.25 5.59 7.744 2.25 12 2.25C16.256 2.25 19.75 5.591 19.75 9.766C19.75 12.19 18.746 14.393 16.853 15.784C16.7894 15.8253 16.7424 15.8876 16.72 15.96C16.5773 16.5718 16.4459 17.1863 16.326 17.803C16.143 18.741 15.994 19.651 15.963 20.175C15.893 21.333 15.041 22.28 13.911 22.525L13.715 22.567C12.585 22.811 11.415 22.811 10.285 22.567L10.089 22.525C8.959 22.281 8.107 21.333 8.037 20.175C8.006 19.651 7.857 18.741 7.674 17.803C7.55409 17.1863 7.42273 16.5718 7.28 15.96C7.25762 15.8876 7.21056 15.8253 7.147 15.784C5.254 14.394 4.25 12.19 4.25 9.767" fill="#1c95be"/>
</svg>
