<svg width="256" height="256" viewBox="0 0 256 256" fill="none" xmlns="http://www.w3.org/2000/svg">
<path d="M252 128C252.001 139.868 248.483 151.47 241.89 161.338C235.298 171.206 225.926 178.898 214.962 183.44C203.997 187.981 191.932 189.17 180.293 186.854C168.653 184.538 157.961 178.823 149.57 170.43L149.08 169.9L89.2199 102.31C84.1591 97.3419 77.7437 93.9792 70.7788 92.6439C63.8138 91.3086 56.6096 92.0602 50.0703 94.8044C43.5309 97.5485 37.9477 102.163 34.0214 108.069C30.095 113.974 28.0004 120.908 28.0004 128C28.0004 135.092 30.095 142.026 34.0214 147.931C37.9477 153.837 43.5309 158.452 50.0703 161.196C56.6096 163.94 63.8138 164.691 70.7788 163.356C77.7437 162.021 84.1591 158.658 89.2199 153.69L92.2999 150.21C93.3446 149.028 94.6118 148.064 96.0293 147.371C97.4467 146.679 98.9866 146.273 100.561 146.176C102.135 146.079 103.714 146.293 105.205 146.806C106.697 147.319 108.073 148.12 109.255 149.165C110.437 150.21 111.401 151.477 112.094 152.894C112.786 154.312 113.192 155.852 113.289 157.426C113.386 159.001 113.172 160.579 112.659 162.07C112.146 163.562 111.345 164.938 110.3 166.12L106.95 169.9L106.46 170.43C98.0684 178.82 87.3774 184.534 75.7388 186.848C64.1002 189.162 52.0367 187.973 41.0738 183.432C30.1108 178.89 20.7407 171.2 14.1482 161.333C7.55579 151.466 4.03711 139.866 4.03711 128C4.03711 116.134 7.55579 104.534 14.1482 94.6669C20.7407 84.8001 30.1108 77.1098 41.0738 72.5682C52.0367 68.0267 64.1002 66.8379 75.7388 69.1522C87.3774 71.4664 98.0684 77.1799 106.46 85.57L106.95 86.1L166.81 153.69C171.871 158.658 178.286 162.021 185.251 163.356C192.216 164.691 199.42 163.94 205.96 161.196C212.499 158.452 218.082 153.837 222.008 147.931C225.935 142.026 228.029 135.092 228.029 128C228.029 120.908 225.935 113.974 222.008 108.069C218.082 102.163 212.499 97.5485 205.96 94.8044C199.42 92.0602 192.216 91.3086 185.251 92.6439C178.286 93.9792 171.871 97.3419 166.81 102.31L163.73 105.79C162.685 106.972 161.418 107.936 160.001 108.629C158.583 109.321 157.043 109.727 155.469 109.824C153.894 109.921 152.316 109.707 150.825 109.194C149.333 108.681 147.957 107.88 146.775 106.835C145.593 105.79 144.628 104.523 143.936 103.106C143.244 101.688 142.838 100.148 142.741 98.5739C142.644 96.9995 142.858 95.4214 143.371 93.9297C143.884 92.438 144.685 91.0619 145.73 89.88L149.08 86.1L149.57 85.57C157.961 77.1774 168.653 71.4618 180.293 69.1461C191.932 66.8304 203.997 68.0186 214.962 72.5605C225.926 77.1023 235.298 84.7938 241.89 94.662C248.483 104.53 252.001 116.132 252 128Z" fill="#1c95be"/>
</svg>
