<svg width="16" height="16" viewBox="0 0 16 16" fill="none" xmlns="http://www.w3.org/2000/svg">
<path fill-rule="evenodd" clip-rule="evenodd" d="M11.2499 2.5C10.8984 2.49982 10.5517 2.582 10.2377 2.73996C9.92368 2.89791 9.65103 3.12725 9.44162 3.40958C9.23221 3.6919 9.09186 4.01937 9.03182 4.36572C8.97179 4.71206 8.99374 5.06766 9.09591 5.404L9.22591 5.834L8.90891 6.152L2.65491 12.405C2.53026 12.5296 2.46023 12.6987 2.46023 12.875C2.46023 13.0513 2.53026 13.2203 2.65491 13.345C2.77956 13.4697 2.94863 13.5397 3.12491 13.5397C3.30119 13.5397 3.47026 13.4697 3.59491 13.345L9.84791 7.09L10.1659 6.772L10.5959 6.902C11.0137 7.02925 11.4595 7.03217 11.8789 6.9104C12.2983 6.78862 12.6732 6.54742 12.9579 6.21621C13.2425 5.885 13.4247 5.4781 13.482 5.04515C13.5394 4.6122 13.4695 4.17191 13.2809 3.778L11.7809 5.279C11.7118 5.35066 11.629 5.40784 11.5375 5.44719C11.4461 5.48654 11.3477 5.50727 11.2481 5.50818C11.1485 5.5091 11.0497 5.49017 10.9575 5.4525C10.8653 5.41483 10.7816 5.35918 10.7111 5.2888C10.6407 5.21841 10.5849 5.1347 10.5472 5.04254C10.5094 4.95039 10.4904 4.85164 10.4912 4.75205C10.492 4.65247 10.5127 4.55405 10.552 4.46252C10.5912 4.371 10.6483 4.28822 10.7199 4.219L12.2199 2.719C11.9171 2.5739 11.5856 2.49971 11.2499 2.5ZM7.49991 4.75C7.49998 3.9811 7.7364 3.2308 8.17715 2.60076C8.6179 1.97072 9.24167 1.49139 9.96394 1.22771C10.6862 0.964038 11.4721 0.928762 12.2151 1.12666C12.9581 1.32457 13.6223 1.74608 14.1177 2.3341C14.6131 2.92212 14.9158 3.64822 14.9848 4.41402C15.0538 5.17982 14.8856 5.94832 14.5032 6.61538C14.1208 7.28244 13.5426 7.81583 12.8469 8.14328C12.1512 8.47072 11.3717 8.5764 10.6139 8.446L10.0609 9L10.9999 9.94L11.4699 9.47L11.9999 8.94L12.5299 9.47L14.4049 11.345C14.6109 11.5448 14.7751 11.7836 14.888 12.0474C15.0008 12.3112 15.0601 12.5949 15.0623 12.8819C15.0645 13.1688 15.0095 13.4533 14.9007 13.7189C14.7919 13.9844 14.6314 14.2257 14.4285 14.4286C14.2256 14.6315 13.9843 14.792 13.7188 14.9008C13.4533 15.0096 13.1687 15.0645 12.8818 15.0623C12.5948 15.0601 12.3112 15.0009 12.0473 14.888C11.7835 14.7752 11.5447 14.611 11.3449 14.405L9.46991 12.53L8.93991 12L9.46991 11.47L9.93991 11L8.99991 10.06L4.65491 14.405C4.45512 14.611 4.21636 14.7752 3.95251 14.888C3.68867 15.0009 3.40501 15.0601 3.11805 15.0623C2.8311 15.0645 2.54657 15.0096 2.28103 14.9008C2.01549 14.792 1.77424 14.6315 1.57132 14.4286C1.3684 14.2257 1.20787 13.9844 1.09907 13.7189C0.99027 13.4533 0.935368 13.1688 0.937563 12.8819C0.939758 12.5949 0.999006 12.3112 1.11186 12.0474C1.22471 11.7836 1.38891 11.5448 1.59491 11.345L5.93891 7L3.49991 4.56L2.88291 5.177L2.37591 4.416L1.37591 2.916L1.03491 2.404L1.46991 1.97L1.96991 1.47L2.40391 1.035L2.91591 1.376L4.41591 2.376L5.17691 2.883L4.56091 3.5L6.99991 5.94L7.55391 5.386C7.519 5.17578 7.50094 4.9631 7.49991 4.75ZM11.9999 11.06L13.3449 12.405C13.4696 12.5296 13.5396 12.6987 13.5396 12.875C13.5396 13.0513 13.4696 13.2203 13.3449 13.345C13.2203 13.4697 13.0512 13.5397 12.8749 13.5397C12.6986 13.5397 12.5296 13.4697 12.4049 13.345L11.0609 12L11.9999 11.06Z" fill="#1c95be"/>
</svg>
