<svg width="56" height="56" viewBox="0 0 56 56" fill="none" xmlns="http://www.w3.org/2000/svg">
<path d="M8.21 42.225L26.252 52.45C26.894 52.817 27.524 53 28.143 53C28.762 53 29.4 52.817 30.057 52.45L48.077 42.225C49.131 41.614 49.93 40.922 50.472 40.15C51.015 39.379 51.286 38.175 51.286 36.54V18.383C51.286 17.191 51.061 16.205 50.61 15.426C50.159 14.646 49.452 13.974 48.49 13.408L32.257 4.192C30.883 3.397 29.515 3 28.155 3C26.795 3 25.419 3.397 24.028 4.192L7.82 13.408C6.842 13.974 6.127 14.646 5.676 15.426C5.226 16.205 5 17.191 5 18.383V36.54C5 38.175 5.275 39.379 5.825 40.15C6.375 40.922 7.17 41.614 8.21 42.225ZM10.273 39.199C9.6 38.817 9.134 38.416 8.874 37.995C8.614 37.575 8.484 37.052 8.484 36.425V19.116L26.344 29.318V48.346L10.273 39.199ZM46.036 39.199L29.943 48.346V29.318L47.8 19.116V36.425C47.8 37.052 47.67 37.575 47.41 37.995C47.15 38.415 46.693 38.817 46.036 39.199ZM28.154 26.109L10.456 16.09L17.54 12.033L35.238 22.097L28.154 26.109ZM38.928 20.011L21.162 9.969L25.564 7.47C27.306 6.477 29.034 6.477 30.745 7.47L45.853 16.09L38.928 20.011Z" fill="#1c95be"/>
</svg>
