<svg width="24" height="24" viewBox="0 0 24 24" fill="none" xmlns="http://www.w3.org/2000/svg">
<path d="M10.0801 7.897C11.1571 5.966 11.6951 5 12.5001 5C13.3051 5 13.8431 5.966 14.9201 7.897L15.1981 8.397C15.5041 8.946 15.6581 9.22 15.8961 9.401C16.1341 9.582 16.4311 9.649 17.0261 9.784L17.5661 9.906C19.6571 10.379 20.7031 10.616 20.9511 11.416C21.2001 12.216 20.4871 13.049 19.0611 14.716L18.6931 15.146C18.2881 15.62 18.0861 15.857 17.9941 16.15C17.9041 16.443 17.9341 16.759 17.9951 17.39L18.0511 17.966C18.2671 20.19 18.3741 21.302 17.7231 21.796C17.0721 22.291 16.0931 21.84 14.1361 20.939L13.6291 20.705C13.0731 20.449 12.7951 20.321 12.5001 20.321C12.2051 20.321 11.9271 20.449 11.3701 20.705L10.8641 20.939C8.90706 21.839 7.92806 22.291 7.27706 21.796C6.62606 21.302 6.73406 20.19 6.94906 17.966L7.00506 17.391C7.06606 16.759 7.09706 16.443 7.00506 16.151C6.91506 15.857 6.71206 15.621 6.30706 15.147L5.93806 14.715C4.51306 13.049 3.80006 12.215 4.04806 11.415C4.29806 10.615 5.34306 10.379 7.43406 9.906L7.97406 9.784C8.56906 9.649 8.86606 9.582 9.10406 9.401C9.34306 9.221 9.49606 8.946 9.80206 8.397L10.0801 7.897Z" stroke="#1c95be" stroke-width="1.5"/>
<path d="M4.99 2C4.99 2 5.278 3.458 5.91 4.085C6.54 4.712 8 4.99 8 4.99C8 4.99 6.542 5.278 5.915 5.91C5.288 6.54 5.01 8 5.01 8C5.01 8 4.722 6.542 4.09 5.915C3.46 5.288 2 5.01 2 5.01C2 5.01 3.458 4.722 4.085 4.09C4.712 3.46 4.99 2 4.99 2Z" stroke="#1c95be" stroke-linejoin="round"/>
<path d="M18 5H20M19 6V4" stroke="#1c95be" stroke-width="1.5" stroke-linecap="round"/>
</svg>
